<svg viewBox="0 0 300 300" xmlns="http://www.w3.org/2000/svg">
  <defs>
    <!-- Orange to yellow gradient -->
    <linearGradient id="searchGradient" x1="0%" y1="0%" x2="100%" y2="100%">
      <stop offset="0%" style="stop-color:#e67e22;stop-opacity:1" />
      <stop offset="30%" style="stop-color:#f39c12;stop-opacity:1" />
      <stop offset="70%" style="stop-color:#f1c40f;stop-opacity:1" />
      <stop offset="100%" style="stop-color:#f4d03f;stop-opacity:1" />
    </linearGradient>
  </defs>
  
  <g transform="scale(0.85) translate(20, 20)">
    <!-- Main magnifying glass circle and handle -->
    <path d="M211.6,139.7c-13.1,0-25.2,4.1-35.2,11.1L62.7,37.2L46.5,53.4l113.9,113.9c-6.5,9.8-10.3,21.4-10.3,34   c0,33.9,27.6,61.6,61.6,61.6s61.6-27.6,61.6-61.6S245.5,139.7,211.6,139.7z M211.6,239.8c-21.3,0-38.6-17.3-38.6-38.6   s17.3-38.6,38.6-38.6s38.6,17.3,38.6,38.6S232.9,239.8,211.6,239.8z" 
          fill="url(#searchGradient)"/>
    
    <!-- Motion trail 1 -->
    <path d="M190.9,125.2c0,0,0.3-0.3,0.8-0.8c0.5-0.5,1.3-1.3,2.4-2.2c1.1-0.9,2.4-1.9,4.1-2.8c1.6-1,3.6-2,5.7-2.9   c1.1-0.5,2.2-0.8,3.5-1.3c1.2-0.4,2.5-0.7,3.8-1c0.7-0.2,1.3-0.3,2-0.4l0.3,0l0.1,0c-0.2,0,0.3,0,0.3,0l0,0l0.1,0l0.5-0.1   c0.3-0.1,0.6-0.1,0.9-0.2c0.6-0.1,1.3-0.2,1.9-0.3l1-0.1c0.4,0,0.8,0,1.2-0.1c1.5-0.1,3.2-0.1,4.7-0.1c1.5,0.1,3.1,0.1,4.6,0.3   c1.5,0.2,3.1,0.4,4.7,0.7c1.5,0.4,3.1,0.7,4.6,1.1c1.5,0.5,3,1,4.5,1.5c0.7,0.3,1.5,0.6,2.2,0.9c0.7,0.3,1.4,0.6,2.1,1   c2.8,1.4,5.4,3,7.9,4.7c1.2,0.9,2.4,1.8,3.4,2.7c1,1,2.1,1.9,3,2.8c1.9,2,3.5,3.9,4.9,5.8c1.4,1.9,2.4,3.8,3.3,5.5   c0.8,1.7,1.5,3.3,1.9,4.6c0.4,1.3,0.7,2.4,0.9,3.1c0.2,0.7,0.2,1.1,0.2,1.1l-0.9,0.8c0,0-1-1-2.6-2.7c-0.9-0.8-1.9-1.8-3.2-3   c-1.3-1.1-2.7-2.4-4.3-3.6c-1.6-1.3-3.4-2.6-5.4-3.9c-1-0.6-2-1.3-3.1-1.9c-1.1-0.6-2.2-1.2-3.3-1.9c-1.1-0.6-2.3-1.2-3.5-1.8   c-1.2-0.6-2.4-1.1-3.7-1.6c-1.3-0.5-2.5-0.9-3.8-1.4c-1.3-0.4-2.6-0.8-3.9-1.2c-1.3-0.4-2.7-0.7-4-1.1c-1.3-0.3-2.7-0.6-4-0.8   c-1.3-0.2-2.7-0.4-4-0.6c-1.3-0.2-2.6-0.3-3.9-0.4c-1.3-0.2-2.6-0.1-3.8-0.2c-0.6,0-1.3-0.1-1.8-0.1c-0.6,0-1.2,0-1.8,0   c-2.4,0-4.6,0.2-6.6,0.4c-4.1,0.4-7.5,1-9.9,1.6c-2.3,0.5-3.7,0.9-3.7,0.9L190.9,125.2z" 
          fill="url(#searchGradient)" 
          opacity="0.6"/>
    
    <!-- Motion trail 2 -->
    <path d="M221.3,103.9c0,0,0.1-0.2,0.4-0.5c0.3-0.3,0.7-0.7,1.3-1.2c0.6-0.5,1.3-1,2.2-1.6c0.9-0.5,2-1.1,3.2-1.6   c1.2-0.5,2.5-0.9,4-1.3c0.4-0.1,0.7-0.2,1.1-0.2l0.1,0l0.1,0c-0.1,0,0.2,0,0.2,0l0,0l0,0l0.3,0l0.5-0.1c0.3-0.1,0.7-0.1,1.1-0.2   l0.5-0.1l0.6,0c0.8,0,1.8-0.1,2.6,0c0.8,0,1.7,0.1,2.5,0.2c0.8,0.1,1.7,0.2,2.6,0.4c0.8,0.2,1.7,0.4,2.5,0.6   c0.8,0.3,1.7,0.5,2.5,0.8c0.8,0.3,1.6,0.7,2.4,1c1.5,0.7,3,1.6,4.3,2.6c0.6,0.5,1.3,1,1.9,1.5c0.6,0.5,1.2,1,1.7,1.6   c1,1.1,1.9,2.1,2.7,3.2c0.8,1,1.3,2.1,1.8,3c0.5,0.9,0.8,1.8,1.1,2.5c0.3,0.7,0.4,1.3,0.5,1.7c0.1,0.4,0.1,0.6,0.1,0.6l-0.5,0.4   c0,0-0.5-0.5-1.4-1.5c-0.5-0.5-1.1-1-1.7-1.6c-0.7-0.6-1.5-1.3-2.4-2c-0.9-0.7-1.9-1.4-3-2.2c-0.5-0.3-1.1-0.7-1.7-1.1   c-0.6-0.3-1.2-0.7-1.8-1c-0.6-0.3-1.3-0.6-1.9-1c-0.7-0.3-1.3-0.6-2-0.9c-0.7-0.3-1.4-0.5-2.1-0.8c-0.7-0.2-1.4-0.4-2.2-0.7   c-0.7-0.2-1.5-0.4-2.2-0.6c-0.7-0.2-1.5-0.3-2.2-0.5c-1.5-0.3-2.9-0.5-4.3-0.6c-0.7-0.1-1.4-0.1-2.1-0.1c-0.7,0-1.3,0-2,0   c-1.3,0-2.5,0.1-3.7,0.2c-2.3,0.2-4.1,0.6-5.4,0.9c-1.3,0.3-2,0.5-2,0.5L221.3,103.9z" 
          fill="url(#searchGradient)" 
          opacity="0.4"/>
    
    <!-- Motion trail 3 -->
    <path d="M148.3,244.8c0,0-1.8,0.4-5.1,1.1c-1.7,0.3-3.8,0.7-6.1,1.2c-2.3,0.4-5,0.9-7.9,1.3c-2.9,0.5-6,0.9-9.3,1.3   c-1.7,0.2-3.3,0.4-5.1,0.6c-1.7,0.2-3.5,0.3-5.3,0.5c-1.8,0.1-3.6,0.3-5.5,0.4c-1.9,0.1-3.7,0.2-5.6,0.3c-1.9,0.1-3.8,0.1-5.7,0.2   c-1.9,0-3.8,0.1-5.7,0.1c-1.9,0-3.8,0-5.7,0c-1.9-0.1-3.8-0.1-5.7-0.1c-1.9-0.1-3.7-0.2-5.6-0.3c-1.8-0.1-3.6-0.2-5.4-0.4   c-3.6-0.3-7-0.6-10.2-1c-3.2-0.4-6.3-0.8-9.1-1.2c-5.6-0.8-10.2-1.6-13.5-2.3c-3.2-0.6-5.1-1-5.1-1s1.9,0,5.2,0   c3.3,0,8-0.1,13.5-0.3c2.8-0.1,5.8-0.3,9-0.6c3.2-0.2,6.5-0.6,10-1c1.7-0.2,3.5-0.4,5.2-0.7c1.8-0.3,3.5-0.5,5.3-0.8   c1.8-0.3,3.6-0.6,5.4-0.9c1.8-0.3,3.6-0.7,5.4-1c1.8-0.4,3.6-0.7,5.4-1.1c1.8-0.4,3.6-0.8,5.3-1.2c1.7-0.4,3.5-0.9,5.2-1.3   c1.7-0.5,3.4-0.9,5-1.4c1.6-0.5,3.3-1,4.8-1.4c1.6-0.5,3.1-1,4.6-1.4c3-1,5.8-1.9,8.3-2.8c2.6-0.9,4.9-1.8,6.9-2.6   c2-0.8,3.8-1.5,5.2-2.1c3-1.3,4.8-2,4.8-2L148.3,244.8z" 
          fill="url(#searchGradient)" 
          opacity="0.5"/>
  </g>
</svg>